<svg t="1641878044007" class="icon" viewBox="0 0 1024 1024" version="1.1" xmlns="http://www.w3.org/2000/svg" p-id="75972" width="200" height="200"><path d="M972.8 256m0 179.2l0 217.6q0 179.2-179.2 179.2l-384 0q-179.2 0-179.2-179.2l0-217.6q0-179.2 179.2-179.2l384 0q179.2 0 179.2 179.2Z" fill="#F0F9FE" p-id="75973"></path><path d="M780.8 89.6c113.1136 0 204.8 91.6864 204.8 204.8v332.8c0 113.1136-91.6864 204.8-204.8 204.8H243.2c-113.1136 0-204.8-91.6864-204.8-204.8V294.4c0-113.1136 91.6864-204.8 204.8-204.8h537.6z m153.6 204.8c0-84.8256-68.7744-153.6-153.6-153.6H243.2c-84.8256 0-153.6 68.7744-153.6 153.6v332.8c0 84.8256 68.7744 153.6 153.6 153.6h537.6c84.8256 0 153.6-68.7744 153.6-153.6V294.4z" fill="#3A4453" p-id="75974"></path><path d="M802.2912 269.184a51.2 51.2 0 0 1 3.7376 72.3072L613.76 554.688a51.2 51.2 0 0 1-63.936 9.8688l-114.1248-66.944L281.728 673.7024a51.2 51.2 0 0 1-77.0816-67.4048l181.8624-208a51.2 51.2 0 0 1 64.448-10.4576l114.688 67.2896L729.984 272.896a51.2 51.2 0 0 1 72.32-3.7376z" fill="#4FB5F5" p-id="75975"></path><path d="M76.8 908.8a25.6 25.6 0 0 1 25.6-25.6h819.2a25.6 25.6 0 1 1 0 51.2H102.4a25.6 25.6 0 0 1-25.6-25.6z" fill="#3A4453" p-id="75976"></path></svg>