<svg t="1641877935051" class="icon" viewBox="0 0 1024 1024" version="1.1" xmlns="http://www.w3.org/2000/svg" p-id="74408" data-spm-anchor-id="a313x.7781069.0.i83" width="200" height="200"><path d="M373.757 303.696c-0.748 0.497-1.494 0.998-2.237 1.503a45.231 45.231 0 0 0 2.237-1.503zM314.288 235.408a340.79 340.79 0 0 1 16.61-11.169 45.545 45.545 0 0 0-16.61 11.169zM655.521 307.294a249.81 249.81 0 0 0-9.189-6.146 45.569 45.569 0 0 0 9.189 6.146zM694.372 225.041c4.4 2.802 8.739 5.691 12.998 8.686a45.559 45.559 0 0 0-12.998-8.686z" fill="#F2F2F2" p-id="74409"></path><path d="M512 14C236.962 14 14 236.962 14 512s222.962 498 498 498 498-222.962 498-498S787.038 14 512 14z m-45 191.706c0-24.853 20.147-45 45-45s45 20.147 45 45v166c0 24.853-20.147 45-45 45s-45-20.147-45-45v-166zM512 852c-187.777 0-340-152.223-340-340 0-114.026 56.146-214.917 142.288-276.592a340.79 340.79 0 0 1 16.61-11.169 45.36 45.36 0 0 1 16.435-3.073c25.129 0 45.5 20.371 45.5 45.5 0 15.272-7.532 28.777-19.076 37.029-0.748 0.497-1.494 0.998-2.237 1.503C305.419 350.183 262 426.014 262 512c0 138.071 111.929 250 250 250s250-111.929 250-250c0-84.661-42.088-159.483-106.479-204.706a249.81 249.81 0 0 0-9.189-6.146c-9.689-8.344-15.832-20.692-15.832-34.481 0-25.129 20.371-45.5 45.5-45.5a45.31 45.31 0 0 1 18.372 3.875c4.4 2.802 8.739 5.691 12.998 8.686C794.84 295.241 852 396.94 852 512c0 187.777-152.223 340-340 340z" fill="#545e72" p-id="74410" data-spm-anchor-id="a313x.7781069.0.i84" class="selected"></path></svg>