<svg t="1641870214583" class="icon" viewBox="0 0 1024 1024" version="1.1" xmlns="http://www.w3.org/2000/svg" p-id="27164" width="64" height="64"><path d="M521.5744 959.1808c-105.9328 0-205.4656-41.6256-280.9856-117.76-78.6944-79.3088-122.1632-189.184-119.3472-301.568 3.7888-150.1184 61.4912-276.736 154.368-338.7904 10.6496-7.1168 32.6656-14.6944 60.16 14.4896 9.6768 10.24 19.8656 24.32 29.6448 37.888 6.8608 9.472 17.2032 23.808 24.576 32 29.0816-21.1456 28.4672-91.0336 28.0064-134.3488-0.4096-44.1344-0.768-79.0016 32.4096-85.4016 47.5648-9.1648 137.2672 85.504 189.3376 165.9904 29.696-22.9376 47.7184-38.6048 61.8496-53.504 20.4288-21.6576 54.528-23.9104 77.6192-5.12 102.7584 83.4048 149.5552 257.9456 142.6432 387.2256-11.9296 223.5904-180.992 395.0592-393.2672 398.7456-2.304 0.1536-4.6592 0.1536-7.0144 0.1536zM295.424 262.7072c-67.8912 54.4256-109.6704 156.928-112.7936 278.784-2.4064 95.6928 34.6112 189.2352 101.5296 256.7168 65.28 65.792 151.6544 101.2224 243.4048 99.5328 179.6608-3.1744 322.816-149.5552 333.0048-340.5824 5.8368-109.7216-33.1776-262.9632-116.992-333.7728-21.6064 22.3232-49.0496 44.288-83.3536 70.144a42.60864 42.60864 0 0 1-33.8944 7.7312 42.36288 42.36288 0 0 1-28.16-19.968c-38.9632-66.0992-88.32-116.2752-118.784-140.0832 0 3.2256 0.0512 6.4512 0.0512 9.4208 0.6144 64.5632 1.6384 172.5952-80.4864 198.2976-32.9728 10.2912-56.32-21.9648-83.3536-59.3408-5.5808-7.8336-13.6704-18.9952-20.1728-26.88z m595.8144 296.0384zM455.3216 126.208z" fill="#545e72" p-id="27165" data-spm-anchor-id="a313x.7781069.0.i41" class=""></path><path d="M668.2112 745.5232c-7.68 0-15.4112-2.8672-21.4016-8.704a30.72 30.72 0 0 1-0.6656-43.4176c129.9968-133.9392 72.7552-268.3392 70.2464-274.0224-6.8096-15.4624 0.1024-33.6384 15.5136-40.5504a30.64832 30.64832 0 0 1 40.4992 15.2576c3.2256 7.168 77.824 177.2544-82.176 342.0672a30.35648 30.35648 0 0 1-22.016 9.3696z" fill="#f4ea2a" p-id="27166" data-spm-anchor-id="a313x.7781069.0.i42" class="selected"></path></svg>