<svg t="1641301917693" class="icon" viewBox="0 0 1024 1024" version="1.1" xmlns="http://www.w3.org/2000/svg" p-id="12553" width="128" height="128"><path d="M856.7808 348.6208H650.24c-40.5504-20.1216-35.7376-44.8-23.296-108.544 15.0016-76.7488-9.1136-168.448-83.3024-172.8512S442.0608 99.3792 407.7056 219.648c-34.3552 120.2176-133.0176 162.304-133.0176 162.304v568.1152h545.7408c52.1216 0 95.6416-39.7312 100.352-91.648l36.3008-399.9232c5.376-59.0336-41.0624-109.8752-100.3008-109.8752z" fill="#FFD05C" p-id="12554"></path><path d="M176.1792 949.7088H323.584c35.072 0 63.488-28.416 63.488-63.488V436.48c0-35.072-28.416-63.488-63.488-63.488H176.1792c-56.576 0-102.4 45.824-102.4 102.4v371.9168c0 56.576 45.824 102.4 102.4 102.4z" fill="#FFD05C" p-id="12555"></path><path d="M323.584 949.7088c35.072 0 63.488-28.416 63.488-63.488V436.48c0-35.072-28.416-63.488-63.488-63.488h-32.0512c-10.2912 6.1952-16.7936 8.96-16.7936 8.96v567.7568h48.8448z" fill="#FCA235" p-id="12556"></path><path d="M781.0048 801.024c-1.2288 0-2.5088-0.0512-3.7888-0.1536-22.528-2.048-39.1168-21.9648-37.0688-44.4928l18.0736-198.4c2.048-22.528 22.0672-39.0656 44.4928-37.0688 22.528 2.048 39.1168 21.9648 37.0688 44.4928l-18.0736 198.4c-1.8944 21.248-19.7632 37.2224-40.704 37.2224z" fill="#FFFFFF" p-id="12557"></path></svg>