<?xml version="1.0" encoding="UTF-8"?>
<svg width="370px" height="199px" viewBox="0 0 370 199" version="1.1" xmlns="http://www.w3.org/2000/svg" xmlns:xlink="http://www.w3.org/1999/xlink">
    <!-- Generator: Sketch 54.1 (76490) - https://sketchapp.com -->
    <title>暂无权限</title>
    <desc>Created with Sketch.</desc>
    <defs>
        <linearGradient x1="-47.0190124%" y1="-185.963888%" x2="68.8688465%" y2="100%" id="linearGradient-1">
            <stop stop-color="#D2D2D2" offset="0%"></stop>
            <stop stop-color="#D2D2D2" stop-opacity="0" offset="100%"></stop>
        </linearGradient>
        <linearGradient x1="118.999979%" y1="-110.864112%" x2="54.5018665%" y2="55.5871768%" id="linearGradient-2">
            <stop stop-color="#D2D2D2" offset="0%"></stop>
            <stop stop-color="#D2D2D2" stop-opacity="0" offset="100%"></stop>
        </linearGradient>
        <linearGradient x1="50%" y1="-221.156912%" x2="50%" y2="100%" id="linearGradient-3">
            <stop stop-color="#D2D2D2" offset="0%"></stop>
            <stop stop-color="#D2D2D2" stop-opacity="0" offset="100%"></stop>
        </linearGradient>
        <linearGradient x1="100.080959%" y1="-97.780461%" x2="38.826306%" y2="104.736078%" id="linearGradient-4">
            <stop stop-color="#D2D2D2" offset="0%"></stop>
            <stop stop-color="#D2D2D2" stop-opacity="0" offset="100%"></stop>
        </linearGradient>
        <linearGradient x1="50%" y1="-230.116303%" x2="50%" y2="100%" id="linearGradient-5">
            <stop stop-color="#D2D2D2" offset="0%"></stop>
            <stop stop-color="#D2D2D2" stop-opacity="0" offset="100%"></stop>
        </linearGradient>
        <linearGradient x1="50%" y1="-169.203289%" x2="50%" y2="100%" id="linearGradient-6">
            <stop stop-color="#D2D2D2" offset="0%"></stop>
            <stop stop-color="#D2D2D2" stop-opacity="0" offset="100%"></stop>
        </linearGradient>
        <linearGradient x1="32.3797781%" y1="42.7982344%" x2="67.6078915%" y2="57.2046772%" id="linearGradient-7">
            <stop stop-color="#F6F6F6" offset="0%"></stop>
            <stop stop-color="#E0E0E0" offset="100%"></stop>
        </linearGradient>
        <linearGradient x1="20.0863132%" y1="43.3921926%" x2="79.9383477%" y2="57.5278664%" id="linearGradient-8">
            <stop stop-color="#F9F9F9" offset="0%"></stop>
            <stop stop-color="#E0E0E0" offset="100%"></stop>
        </linearGradient>
        <linearGradient x1="33.4443211%" y1="42.6508437%" x2="60.8583056%" y2="53.8602365%" id="linearGradient-9">
            <stop stop-color="#F6F6F6" offset="0%"></stop>
            <stop stop-color="#E0E0E0" offset="100%"></stop>
        </linearGradient>
        <linearGradient x1="19.0998767%" y1="42.7050642%" x2="80.9001233%" y2="57.2978474%" id="linearGradient-10">
            <stop stop-color="#F6F6F6" offset="0%"></stop>
            <stop stop-color="#E0E0E0" offset="100%"></stop>
        </linearGradient>
        <linearGradient x1="-0.710217957%" y1="-13.4157387%" x2="90.0980183%" y2="111.984982%" id="linearGradient-11">
            <stop stop-color="#FFFFFF" offset="0%"></stop>
            <stop stop-color="#478FFC" offset="100%"></stop>
        </linearGradient>
    </defs>
    <g id="设计规范" stroke="none" stroke-width="1" fill="none" fill-rule="evenodd">
        <g id="08-缺省页规范" transform="translate(-280.000000, -1563.000000)" fill-rule="nonzero">
            <g id="暂无权限" transform="translate(280.000000, 1563.000000)">
                <g id="编组-2备份-8">
                    <path d="M73.2592593,159.554082 C65.345679,155.973835 56.7654321,146.368897 59.1975309,137.331859 C60.4139859,137.020515 61.693852,137.516587 62.382716,138.566427 C62.382716,138.566427 76.1111111,160.010872 72.2592593,140.282477 C70.4444444,131.010872 67.3209877,122.047909 67.0740741,112.467662 C66.6666667,95.0602545 82.6419753,90.233094 87.2345679,109.467662 C87.8395062,112.010872 90.1604938,132.689884 95.4444444,130.319514 C96.1250336,129.961557 96.6773282,129.400632 97.0246914,128.714576 C99.7037037,124.319514 100.506173,117.862724 105.419753,116.368897 C109.728395,115.010872 113.975309,118.751613 116.296296,122.61581 C121,130.467662 127.296296,149.98618 117.666667,156.603464 C108.037037,163.220748 83.7407407,164.270131 73.345679,159.640501 L73.2592593,159.554082 Z" id="路径" fill="url(#linearGradient-1)"></path>
                    <path d="M273.185185,180.430625 C269.703704,172.467662 269.790123,159.591119 277.691358,154.504699 C278.808047,155.104911 279.411159,156.355993 279.185185,157.603464 C279.185185,157.603464 274.975309,182.726921 285.358025,165.504699 C290.296296,157.393588 294,148.665193 300.17284,141.393588 C311.518519,128.134329 326.641975,135.331859 317.148148,152.677538 C315.91358,154.973835 303.740741,171.862724 309.246914,173.665193 C309.992355,173.848515 310.775891,173.801158 311.493827,173.52939 C316.432099,172.0726 321.37037,167.825687 326.037037,169.973835 C330.135802,171.862724 330.777778,177.467662 329.91358,181.899761 C328.135802,190.875069 319.421721,200.91212 307.841474,199.356564 C296.014314,197.751626 277.777778,190.924452 273.222222,180.517045 L273.185185,180.430625 Z" id="路径" fill="url(#linearGradient-2)"></path>
                    <path d="M370.518519,199.356551 C323.962963,167.418279 258.17284,147.504699 185.259259,147.504699 C112.345679,147.504699 46.5555556,167.418279 0,199.356551 L370.518519,199.356551 Z" id="路径" fill="url(#linearGradient-3)"></path>
                    <path d="M293.469136,103.060255 C290.518519,106.763958 288.62963,112.010872 290.395062,116.70223 C291.617284,119.936798 295.296296,119.961489 295.037037,124.455316 C294.783185,126.699169 294.014206,128.854 292.790123,130.751613 C290.704251,134.400024 288.14732,137.758071 285.185185,140.739267 C287.654305,142.665262 288.910389,145.760781 288.481481,148.862724 C287.997231,151.941616 286.539107,154.784309 284.320988,156.973835 C283.667879,157.772484 282.816415,158.385539 281.851852,158.751613 C280.917648,158.967389 279.94655,158.967389 279.012346,158.751613 C274.419062,157.972041 269.959209,156.546384 265.765432,154.517045 C263.148148,153.270131 260.481481,151.566427 259.592593,148.850378 C258.574074,145.733094 260.19348,144.742546 261.961179,143.765863 L262.41743,143.513691 C263.3302,143.004636 264.22575,142.451348 264.765432,141.566427 C266.061728,139.442971 266.098765,136.603464 266.555556,134.233094 C267.222222,130.739267 266.234568,124.368897 270.604938,122.998526 C272.296296,122.467662 274.135802,122.591119 275.82716,122.047909 C279.501372,120.878499 281.022443,117.422242 282.495104,113.927564 L282.762795,113.292245 C283.611763,111.282231 284.486968,109.304653 285.790123,107.78865 C287.641975,105.628156 292.234568,104.566427 293.469136,103.060255 Z M282.802469,123.78865 C282.802469,123.78865 269.506173,139.294822 269.938272,153.628156 L274.234568,153.628156 C274.234568,153.628156 275.790123,136.344205 282.802469,123.78865 Z" id="形状结合" fill="url(#linearGradient-4)"></path>
                    <path d="M104.135802,22.0108718 L104.135802,22.0108718 C104.204481,17.2252075 100.786222,13.0986863 96.0713857,12.2755097 C91.3565496,11.4523331 86.7422233,14.1764226 85.1851852,18.7022298 C82.2145965,18.6439999 79.4492011,20.2121758 77.9742152,22.7913626 C76.4992294,25.3705494 76.5499916,28.54923 78.1065814,31.0800038 C79.6631712,33.6107776 82.4772299,35.0898519 85.4444444,34.9367977 L103.333333,34.9367977 C106.729866,34.891492 109.517593,32.2362321 109.72807,28.8459242 C109.938548,25.4556163 107.50065,22.4759385 104.135802,22.0108718 L104.135802,22.0108718 Z" id="路径" fill="url(#linearGradient-5)"></path>
                    <path d="M178.074074,12.2084027 L178.074074,12.1466743 C178.066799,6.23154854 173.804253,1.17965438 167.974706,0.177082054 C162.14516,-0.825490268 156.439779,2.51210807 154.45679,8.08494589 C148.848713,8.17358419 144.374325,12.7916841 144.462963,18.3997607 C144.551601,24.0078373 149.169701,28.4822262 154.777778,28.3935879 L177,28.3935879 C181.281476,28.4012178 184.829217,25.075029 185.097306,20.8019475 C185.365395,16.528866 182.261202,12.7853409 178.012346,12.2577854 L178.074074,12.2084027 Z" id="路径" fill="url(#linearGradient-6)"></path>
                </g>
                <rect id="矩形" fill="url(#linearGradient-7)" x="131.987654" y="110.777778" width="100.123457" height="23.6419753"></rect>
                <circle id="椭圆形" fill="#FFFFFF" cx="147.950617" cy="122.604938" r="4.45679012"></circle>
                <circle id="椭圆形" fill="#D0D0D0" cx="174.777778" cy="123.234568" r="2.32098765"></circle>
                <circle id="椭圆形" fill="#FFFFFF" cx="182.802469" cy="123.234568" r="2.32098765"></circle>
                <rect id="矩形" fill="#FFFFFF" x="189.160494" y="120.925926" width="35.617284" height="4.62962963" rx="1.74"></rect>
                <rect id="矩形" fill="#CFCFCF" x="136.716049" y="106.962963" width="89.0864198" height="3.82716049"></rect>
                <rect id="矩形" fill="#CFCFCF" x="136.716049" y="134.432099" width="89.0864198" height="3.82716049"></rect>
                <rect id="矩形" fill="#B5B5B5" opacity="0.65" x="144.209877" y="161.901235" width="5.48148148" height="3.02469136"></rect>
                <path d="M138.641975,55.8394947 L225.444444,55.8394947 C229.119524,55.8394947 232.098765,58.8187472 232.098765,62.4938272 L232.098765,79.4814815 L131.975309,79.4814815 L131.975309,62.4938272 C131.975309,60.7268504 132.678078,59.0324242 133.928677,57.7841414 C135.179276,56.5358587 136.875002,55.8362279 138.641975,55.8394947 L138.641975,55.8394947 Z" id="路径" fill="url(#linearGradient-8)"></path>
                <circle id="椭圆形" fill="#FFFFFF" cx="147.950617" cy="67.6666667" r="4.45679012"></circle>
                <circle id="椭圆形" fill="#D0D0D0" cx="174.777778" cy="68.2962963" r="2.32098765"></circle>
                <circle id="椭圆形" fill="#FFFFFF" cx="182.802469" cy="68.2962963" r="2.32098765"></circle>
                <rect id="矩形" fill="#FFFFFF" x="189.160494" y="65.9753086" width="35.617284" height="4.62962963" rx="1.74"></rect>
                <path d="M131.987654,138.271605 L232.098765,138.271605 L232.098765,155.259259 C232.098765,158.934339 229.119524,161.91358 225.444444,161.91358 L138.641975,161.91358 C134.966895,161.91358 131.987654,158.934339 131.987654,155.259259 L131.987654,138.271605 Z" id="路径" fill="url(#linearGradient-9)"></path>
                <circle id="椭圆形" fill="#FFFFFF" cx="147.950617" cy="150.08642" r="4.45679012"></circle>
                <circle id="椭圆形" fill="#D0D0D0" cx="174.777778" cy="149.444444" r="2.32098765"></circle>
                <circle id="椭圆形" fill="#FFFFFF" cx="182.802469" cy="149.444444" r="2.32098765"></circle>
                <rect id="矩形" fill="#FFFFFF" x="189.160494" y="147.135802" width="35.617284" height="4.62962963" rx="1.74"></rect>
                <rect id="矩形" fill="url(#linearGradient-10)" x="131.987654" y="83.308642" width="100.123457" height="23.6419753"></rect>
                <circle id="椭圆形" fill="#FFFFFF" cx="147.950617" cy="95.1358025" r="4.45679012"></circle>
                <circle id="椭圆形" fill="#D0D0D0" cx="174.777778" cy="95.7654321" r="2.32098765"></circle>
                <circle id="椭圆形" fill="#FFFFFF" cx="182.802469" cy="95.7654321" r="2.32098765"></circle>
                <rect id="矩形" fill="#FFFFFF" x="189.160494" y="93.4444444" width="35.617284" height="4.62962963" rx="1.74"></rect>
                <rect id="矩形" fill="#CFCFCF" x="136.716049" y="79.4814815" width="89.0864198" height="3.82716049"></rect>
                <path d="M254.365092,110.631287 L254.031372,110.631287 C254.031372,110.631287 253.224883,110.631287 252.070769,110.631287 C248.97234,110.641221 245.881738,110.321528 242.851766,109.67767 C238.263122,108.668771 232.951418,103.914507 231.39406,102.96089 C230.617113,102.511135 229.734653,102.272792 228.835544,102.269864 C227.937647,102.28155 227.057387,102.519299 226.277027,102.96089 C226.082357,103.099096 220.562079,108.489104 215.153041,109.67767 C212.099085,110.318466 208.98577,110.638098 205.864512,110.631287 C204.654779,110.631287 203.90391,110.631287 203.84829,110.631287 L203.57019,110.631287 C202.411313,110.611271 201.286322,111.020113 200.413759,111.778391 C199.486878,112.51498 198.9409,113.625661 198.925926,114.805088 L198.925926,125.322514 C198.925926,164.02001 226.874941,169.050684 228.01515,169.244172 C228.282921,169.277703 228.553867,169.277703 228.821639,169.244172 C229.094017,169.278427 229.369654,169.278427 229.642033,169.244172 C230.851766,169.050684 258.925926,164.061472 258.925926,125.322514 L258.925926,114.805088 C258.907914,113.64748 258.403758,112.550083 257.535428,111.778391 C256.651329,111.030374 255.526106,110.623241 254.365092,110.631287 Z" id="路径" fill="url(#linearGradient-11)"></path>
                <path d="M238.540582,127.813641 L236.597243,127.813641 L236.597243,124.981942 C236.418063,120.521381 232.845815,117 228.5,117 C224.154185,117 220.581937,120.521381 220.402757,124.981942 L220.402757,127.813641 L218.459418,127.813641 C216.551972,127.821401 215.007554,129.407946 215,131.367423 L215,146.446218 C215.007554,148.405694 216.551972,149.99224 218.459418,150 L238.540582,150 C240.448028,149.99224 241.992446,148.405694 242,146.446218 L242,131.381581 C242,129.416578 240.453393,127.821438 238.540582,127.813641 L238.540582,127.813641 Z M229.873743,139.515908 L229.873743,142.637054 C229.873743,143.389788 229.273628,144 228.533348,144 C227.793068,144 227.192952,143.389788 227.192952,142.637054 L227.192952,139.515908 C226.452852,139.059073 226.000666,138.242812 226,137.362453 C226.095971,136.030674 227.186581,135 228.499838,135 C229.813094,135 230.903705,136.030674 230.999675,137.362453 C231.013445,138.229368 230.588211,139.042671 229.873743,139.515908 L229.873743,139.515908 Z M233.992958,128 L223.007042,128 L223.007042,125.057827 C222.90448,122.930777 223.928423,120.917627 225.670207,119.82184 C227.411992,118.726053 229.588008,118.726053 231.329793,119.82184 C233.071577,120.917627 234.09552,122.930777 233.992958,125.057827 L233.992958,128 Z" id="形状" fill="#FFFFFF"></path>
            </g>
        </g>
    </g>
</svg>