<svg t="1641301939155" class="icon" viewBox="0 0 1024 1024" version="1.1" xmlns="http://www.w3.org/2000/svg" p-id="14040" width="128" height="128"><path d="M537.86 512m-408.1 0a408.1 408.1 0 1 0 816.2 0 408.1 408.1 0 1 0-816.2 0Z" fill="#FED547" p-id="14041" data-spm-anchor-id="a313x.7781069.0.i38" class=""></path><path d="M537.86 103.9a412 412 0 0 0-46 2.65C695.63 129.39 854 302.16 854 512S695.63 894.61 491.89 917.46a412 412 0 0 0 46 2.65C763.25 920.1 946 737.39 946 512S763.25 103.9 537.86 103.9z" fill="#E2B742" p-id="14042"></path><path d="M610 507L401.65 386.72a5.75 5.75 0 0 0-8.62 5V632.3a5.75 5.75 0 0 0 8.62 5L610 517a5.75 5.75 0 0 0 0-10zM404.52 622.35v-220.7L595.65 512z" fill="#1296db" p-id="14043" data-spm-anchor-id="a313x.7781069.0.i40" class="selected"></path><path d="M491.89 98.15C263.69 98.15 78 283.8 78 512s185.69 413.85 413.89 413.85S905.74 740.19 905.74 512 720.09 98.15 491.89 98.15z m0 816.2C270 914.36 89.53 733.86 89.53 512S270 109.64 491.89 109.64 894.25 290.14 894.25 512s-180.5 402.36-402.36 402.36z" fill="#1296db" p-id="14044" data-spm-anchor-id="a313x.7781069.0.i39" class="selected"></path></svg>