<svg t="1641302204370" class="icon" viewBox="0 0 1024 1024" version="1.1" xmlns="http://www.w3.org/2000/svg" p-id="19998" data-spm-anchor-id="a313x.7781069.0.i52" width="128" height="128"><path d="M524.8 682.666667L832 147.2l-38.4-17.066667-313.6 544 6.4 2.133334z" fill="#1296db" p-id="19999" data-spm-anchor-id="a313x.7781069.0.i48" class="selected"></path><path d="M797.866667 706.133333l57.6-544c2.133333-17.066667-6.4-34.133333-23.466667-42.666666-14.933333-8.533333-34.133333-6.4-49.066667 4.266666L179.2 625.066667c-12.8 10.666667-19.2 27.733333-14.933333 44.8 4.266667 17.066667 17.066667 27.733333 34.133333 32l145.066667 27.733333 40.533333 153.6c4.266667 17.066667 17.066667 29.866667 34.133333 32h8.533334c14.933333 0 27.733333-6.4 36.266666-17.066667l93.866667-128 183.466667 34.133334 42.666666 8.533333 8.533334-42.666667-42.666667-8.533333-21.333333-4.266667-520.533334-98.133333L812.8 155.733333l-57.6 541.866667 42.666667 8.533333zM426.666667 874.666667s0-2.133333 0 0l-29.866667-110.933334 98.133333 19.2L426.666667 874.666667z" fill="#515151" p-id="20000" data-spm-anchor-id="a313x.7781069.0.i51" class=""></path></svg>