<svg t="1649916645492" class="icon" viewBox="0 0 1024 1024" version="1.1" xmlns="http://www.w3.org/2000/svg" p-id="7524" width="200" height="200"><path d="M518.194 725.677c0-157.935 126.967-284.903 284.903-284.903 7.742 0 15.484 0 23.226 1.549v-7.742c0-136.258-109.936-247.742-246.194-247.742S333.935 296.774 333.935 434.58v61.935h-78.967c-88.258 0-161.033 71.226-161.033 159.484 0 88.258 72.775 161.032 161.033 161.032h278.71c-9.29-27.87-15.484-58.838-15.484-91.355zM254.968 434.581H272c0-170.323 137.806-309.678 308.129-309.678s308.13 137.807 308.13 309.678c0 27.87-3.098 55.742-10.84 82.064-23.225-7.742-48-12.387-74.322-12.387-122.323 0-222.968 100.645-222.968 222.968 0 60.387 23.226 114.58 61.936 154.839H254.968C131.097 880.516 32 779.87 32 657.548c0-123.87 99.097-222.967 222.968-222.967z" fill="#D8382A" p-id="7525" data-spm-anchor-id="a313x.7781069.0.i12" class="selected"></path><path d="M614.194 725.677a188.903 188.903 0 1 0 377.806 0 188.903 188.903 0 1 0-377.806 0z" fill="#D3EAFF" p-id="7526"></path><path d="M869.677 696.258l-51.096-57.29c-3.097-3.097-7.742-6.194-12.387-6.194-4.646 0-9.29 1.549-12.388 6.194l-51.096 57.29c-3.097 3.097-4.645 7.742-4.645 10.839 0 9.29 7.741 17.032 17.032 17.032h23.226v94.452h55.742v-94.452h24.774c9.29 0 17.032-7.742 17.032-17.032-1.548-4.645-4.645-7.742-6.194-10.839z" fill="#FFC13D" p-id="7527"></path></svg>